# xmcd
#
# Track frame offsets:
#	150
#	33962
#	67559
#	95489
#	146706
#	177588
#
# Disc length: 2594 seconds
#
# Revision: 0
# Processed by: cddbd v1.4PL0 Copyright (c) Steve Scherf et al.
# Submitted via: dBpowerAMP V4.0
#
DISCID=4a0a2006
DTITLE=VOLOVOLO - CARESSE
DYEAR=1900
DGENRE=COMPAS
TTITLE0=CARESSE
TTITLE1=AMOUR -VOLO
TTITLE2=PIECE NANDO
TTITLE3=RIVIEM SIMALO
TTITLE4=REGRETS
TTITLE5=HEP CAMARADE
EXTD=
EXTT0=
EXTT1=
EXTT2=
EXTT3=
EXTT4=
EXTT5=
PLAYORDER=
